<?xml version="1.0" encoding="UTF-8"?>
<svg id="Layer_1" data-name="Layer 1" xmlns="http://www.w3.org/2000/svg" viewBox="0 0 508.14 332.2">
  <defs>
    <style>
      .cls-1 {
        fill: #0600c2;
      }

      .cls-2 {
        fill: #020024;
      }

      .cls-3 {
        fill: #3a31d8;
      }
    </style>
  </defs>
  <g>
    <g>
      <path class="cls-2" d="M265.59,326.56h-92.67l-12.89-214.35v-38.68h-9.67v38.68l-12.89,214.35H44.79L35.12,44.52h48.35l6.45,214.35v36.26h9.67v-36.26l12.89-214.35h85.42l12.89,214.35v36.26h9.67v-36.26l6.45-214.35h48.35l-9.67,282.04Z"/>
      <path class="cls-2" d="M450.12,130.74c0-11.28-4.37-21.08-13.09-29.41-8.73-8.32-21.02-12.49-36.87-12.49-13.43,0-24.04,2.76-31.83,8.26-7.79,5.51-11.68,12.96-11.68,22.36,0,4.83,.94,9.2,2.82,13.1,1.88,3.9,5.17,7.39,9.87,10.48,4.7,3.09,10.88,5.84,18.53,8.26,7.66,2.42,17.39,4.7,29.21,6.85,29.54,5.38,52.11,14.37,67.69,26.99,15.57,12.63,23.37,31.3,23.37,56v4.84c0,13.16-2.36,25.05-7.05,35.66-4.7,10.61-11.48,19.68-20.35,27.2-8.86,7.52-19.61,13.3-32.23,17.32-12.63,4.03-26.86,6.04-42.71,6.04-18.54,0-34.85-2.62-48.95-7.86-14.1-5.24-25.86-12.49-35.25-21.76-9.41-9.27-16.52-20.15-21.35-32.64-4.84-12.49-7.25-26.12-7.25-40.9v-12.09h53.18v9.67c0,16.92,4.9,30.42,14.71,40.49,9.8,10.07,25.04,15.11,45.73,15.11,16.12,0,28.07-3.49,35.86-10.48,7.79-6.98,11.68-15.31,11.68-24.98,0-4.56-.81-8.93-2.42-13.09-1.61-4.16-4.43-7.92-8.46-11.28-4.03-3.36-9.54-6.38-16.52-9.07-6.99-2.68-15.85-4.97-26.59-6.85-14.24-2.42-27.27-5.57-39.08-9.47-11.82-3.89-22.1-9.06-30.82-15.51-8.73-6.45-15.51-14.5-20.35-24.17-4.84-9.67-7.25-21.49-7.25-35.46v-2.42c0-11.55,2.35-22.22,7.05-32.03,4.7-9.8,11.28-18.33,19.74-25.59,8.46-7.25,18.67-12.89,30.62-16.92,11.95-4.03,25.31-6.04,40.09-6.04,16.65,0,31.43,2.35,44.32,7.05,12.89,4.7,23.7,11.08,32.43,19.14,8.73,8.06,15.31,17.33,19.74,27.8,4.43,10.48,6.65,21.49,6.65,33.04v14.5h-53.18v-9.67Z"/>
    </g>
    <g>
      <path class="cls-1" d="M230.47,287.68h-92.67l-12.89-214.35V34.65h-9.67v38.68l-12.89,214.35H9.67L0,5.64H48.35l6.45,214.35v36.26h9.67v-36.26L77.36,5.64h85.42l12.89,214.35v36.26h9.67v-36.26L191.79,5.64h48.35l-9.67,282.04Z"/>
      <path class="cls-1" d="M415,91.86c0-11.28-4.37-21.08-13.09-29.41-8.73-8.32-21.02-12.49-36.87-12.49-13.43,0-24.04,2.76-31.83,8.26-7.79,5.51-11.68,12.96-11.68,22.36,0,4.83,.94,9.2,2.82,13.1,1.88,3.9,5.17,7.39,9.87,10.48,4.7,3.09,10.88,5.84,18.53,8.26,7.66,2.42,17.39,4.7,29.21,6.85,29.54,5.38,52.11,14.37,67.69,27,15.57,12.63,23.37,31.3,23.37,56v4.84c0,13.16-2.36,25.05-7.05,35.66-4.7,10.61-11.48,19.68-20.35,27.2-8.86,7.52-19.61,13.3-32.23,17.32-12.63,4.03-26.86,6.04-42.71,6.04-18.54,0-34.85-2.62-48.95-7.86-14.1-5.24-25.86-12.49-35.25-21.76-9.41-9.27-16.52-20.15-21.35-32.64-4.84-12.49-7.25-26.12-7.25-40.89v-12.09h53.18v9.67c0,16.92,4.9,30.42,14.71,40.49,9.8,10.07,25.04,15.11,45.73,15.11,16.12,0,28.07-3.49,35.86-10.48,7.79-6.98,11.68-15.31,11.68-24.98,0-4.56-.81-8.93-2.42-13.09-1.61-4.16-4.43-7.92-8.46-11.28-4.03-3.36-9.54-6.38-16.52-9.07-6.99-2.68-15.85-4.97-26.59-6.85-14.24-2.42-27.27-5.57-39.08-9.47-11.82-3.89-22.1-9.07-30.82-15.51-8.73-6.45-15.51-14.5-20.35-24.17-4.84-9.67-7.25-21.49-7.25-35.46v-2.42c0-11.55,2.35-22.22,7.05-32.03,4.7-9.8,11.28-18.33,19.74-25.59,8.46-7.25,18.67-12.89,30.62-16.92,11.95-4.03,25.31-6.04,40.09-6.04,16.65,0,31.43,2.35,44.32,7.05,12.89,4.7,23.7,11.08,32.43,19.14,8.73,8.06,15.31,17.33,19.74,27.8,4.43,10.48,6.65,21.49,6.65,33.04v14.5h-53.18v-9.67Z"/>
    </g>
  </g>
  <g>
    <path class="cls-3" d="M252.25,305.83h-92.67l-12.89-214.35V52.8h-9.67v38.68l-12.89,214.35H31.45L21.78,23.79h48.35l6.45,214.35v36.26h9.67v-36.26L99.14,23.79h85.42l12.89,214.35v36.26h9.67v-36.26l6.45-214.35h48.35l-9.67,282.04Z"/>
    <path class="cls-3" d="M436.78,110.02c0-11.28-4.37-21.08-13.09-29.41-8.73-8.32-21.02-12.49-36.87-12.49-13.43,0-24.04,2.76-31.83,8.26-7.79,5.51-11.68,12.96-11.68,22.36,0,4.83,.94,9.2,2.82,13.1,1.88,3.9,5.17,7.39,9.87,10.48,4.7,3.09,10.88,5.84,18.53,8.26,7.66,2.42,17.39,4.7,29.21,6.85,29.54,5.38,52.11,14.37,67.69,27,15.57,12.63,23.37,31.29,23.37,56v4.84c0,13.16-2.36,25.05-7.05,35.66-4.7,10.61-11.48,19.68-20.35,27.2-8.86,7.52-19.61,13.3-32.23,17.32-12.63,4.03-26.86,6.04-42.71,6.04-18.54,0-34.85-2.62-48.95-7.86-14.1-5.24-25.86-12.49-35.25-21.76-9.41-9.27-16.52-20.15-21.35-32.64-4.84-12.49-7.25-26.12-7.25-40.9v-12.09h53.18v9.67c0,16.92,4.9,30.42,14.71,40.49,9.8,10.07,25.04,15.11,45.73,15.11,16.12,0,28.07-3.49,35.86-10.48,7.79-6.98,11.68-15.31,11.68-24.98,0-4.56-.81-8.93-2.42-13.09-1.61-4.16-4.43-7.92-8.46-11.28-4.03-3.36-9.54-6.38-16.52-9.07-6.99-2.68-15.85-4.97-26.59-6.85-14.24-2.42-27.27-5.57-39.08-9.47-11.82-3.89-22.1-9.07-30.82-15.51-8.73-6.45-15.51-14.5-20.35-24.17-4.84-9.67-7.25-21.49-7.25-35.46v-2.42c0-11.55,2.35-22.22,7.05-32.03,4.7-9.8,11.28-18.33,19.74-25.59,8.46-7.25,18.67-12.89,30.62-16.92,11.95-4.03,25.31-6.04,40.09-6.04,16.65,0,31.43,2.35,44.32,7.05,12.89,4.7,23.7,11.08,32.43,19.14,8.73,8.06,15.31,17.33,19.74,27.8,4.43,10.48,6.65,21.49,6.65,33.04v14.5h-53.18v-9.67Z"/>
  </g>
</svg>